# xmcd
#
# Track frame offsets:
#	150
#	11257
#	23595
#	36271
#	46509
#	57422
#	74596
#	87397
#	95911
#	105052
#	118155
#	128438
#	139454
#	154485
#	167183
#	180031
#	191949
#	203095
#	213542
#	225775
#	239651
#	249912
#	259738
#	272901
#
# Disc length: 3791 seconds
#
# Revision: 0
# Processed by: cddbd v1.5.2PL0 Copyright (c) Steve Scherf et al.
# Submitted via: EasyCDDAExtractor 16.0.1.1
#
DISCID=4c0ecd18
DTITLE=Philomena Begley - Truckin' Queen and Nashville Country
DYEAR=1977
DGENRE=Truckcountry
TTITLE0=Big Wheel Cannonball
TTITLE1=Highwayman
TTITLE2=In God I Trust
TTITLE3=Long Legged Truckdrivers
TTITLE4=Ravishing Ruby
TTITLE5=Truckin' Queen
TTITLE6=Route 65 To Nashville
TTITLE7=Truck Driving Mother
TTITLE8=Runaway Truck
TTITLE9=Old Ben
TTITLE10=Big Mack
TTITLE11=Roll On Big Mama
TTITLE12=I'll Be A Lady Tonight
TTITLE13=Let The Teardrops Fall On Me
TTITLE14=Catfish John
TTITLE15=The Only Man Made Thing in Heaven
TTITLE16=Mama's And Daddy's Little Girl
TTITLE17=Seeing You With Her
TTITLE18=The Umbrella Song
TTITLE19=My Man Is A Mountain
TTITLE20=Tonight I'll Throw A Party Of My Own
TTITLE21=Some Old Rainy Morning
TTITLE22=Get A Little Hurt Out
TTITLE23=I Wonder Where I'll Find You Out Tonight
EXTD=
EXTT0=
EXTT1=
EXTT2=
EXTT3=
EXTT4=
EXTT5=
EXTT6=
EXTT7=
EXTT8=
EXTT9=
EXTT10=
EXTT11=
EXTT12=
EXTT13=
EXTT14=
EXTT15=
EXTT16=
EXTT17=
EXTT18=
EXTT19=
EXTT20=
EXTT21=
EXTT22=
EXTT23=
PLAYORDER=
